<svg id="logosandtypes_com" data-name="logosandtypes com" xmlns="http://www.w3.org/2000/svg" viewBox="0 0 150 150"><defs><style>.cls-1{fill:none;}.cls-2{fill:#8f98a9;}.cls-2,.cls-3{fill-rule:evenodd;}.cls-3{fill:#1a171b;}</style></defs><path class="cls-1" d="M0,.2H150v150H0Z" transform="translate(0 -0.2)"/><path class="cls-2" d="M112.84,42.53,100.3,35.07l1.89-1.26L114.25,41a13.2,13.2,0,0,0-1.41,1.58" transform="translate(0 -0.2)"/><path class="cls-2" d="M115.83,129.72l-5.15-3.63c-3.38-2.41-5.15-6.49-5.15-11V64.61c0-7,1.48-11.79,3.83-15.11a32.81,32.81,0,0,0-1.92,12.09l.15,51.66c0,5.59,1.62,9.22,5.44,11.94l4.71,3.33Z" transform="translate(0 -0.2)"/><path class="cls-2" d="M74.14,129.26a8.85,8.85,0,0,1-.8.46H72.05V45.38c0-4.08-.32-4.08-2.91-5.9l-3.72-2.72,2.43-1.21c1.94,1.51,4.85,3.63,4.85,3.78,1.13,1.06,1.44,1.66,1.44,4.08v85.85Z" transform="translate(0 -0.2)"/><path class="cls-2" d="M12.49,25.09A10.21,10.21,0,0,0,13,34.31,11.26,11.26,0,0,0,20.08,39c-9.52.73-13.71-6.14-7.59-13.9" transform="translate(0 -0.2)"/><path class="cls-2" d="M34.91,98.33a32.21,32.21,0,0,0,.87-8V46.68c0-5.25-.25-5.85-1.75-7.5h.26c2.11-.45,3.23,0,3.23,4.5V87.52c0,5.11-.74,8.41-2.61,10.82" transform="translate(0 -0.2)"/><path class="cls-2" d="M38.66,129.73c-1.25-4.13-5-7.62-11.6-8.57a16.8,16.8,0,0,1,2.83-.16c8.14.15,10.49,5.23,11,6.82l.16.47Z" transform="translate(0 -0.2)"/><path class="cls-3" d="M43.49,127.52c-1.53-4.28-6-8.7-13.89-9-7.49-.16-18.17,2.75-27,9.46L.9,125.84c6.41-7,21.37-18.3,37.09-18.46,8.24,0,14,2.75,18.16,7.17L63,110.74l2,4Z" transform="translate(0 -0.2)"/><path class="cls-3" d="M137.65,34c-6,3.51-8,8.24-8,15.57V108c0,3.67.47,5.34,2.45,6.41l2,1.07,5.49-3.21,1.83,3.67-19.08,11.44-6.56-4.43c-2.91-2-4.13-4.42-4.13-9.15V61.62c0-9.76,3.06-15,7.33-18.15l2.45-1.84-18-10.53L95.37,36v76c0,6.4-.92,7.32-6.57,10.21,0,0-4.42,2.14-10.51,5.35H77.06V43.31c0-4.11-.46-5-2.75-6.86l-6.4-5.19-7.79,4.42V79.32c0,7.62-1.22,13.11-7.33,16.92l-15.25,9.62L36,103.27c4.74-3.67,5.8-8.86,5.8-15V43.77c0-6.56-.9-9.15-7.78-7.93-2.59.45-6.56,1.06-9,1.37-10.08,1.37-14.35-5.8-7.48-14.8,0,0,1.68-2.29,5.95-7.79l3.36,2.3L24.4,20.43c-3.2,4.58-.6,7,4.59,5.18,2.44-.91,7.17-2.74,10.53-4.12,14.49-5.64,19.84,3.67,20.6,9.16l18-10.83L93.69,31.71l19.22-11.89,14.81,8.39c5,2.89,7.48,1.67,11-.16l2.9-1.52,2.29,3.82L137.65,34Z" transform="translate(0 -0.2)"/></svg>